<?xml version="1.0" encoding="utf-8"?>
<!-- Generator: Adobe Illustrator 27.5.0, SVG Export Plug-In . SVG Version: 6.00 Build 0)  -->
<svg version="1.1"
	 id="svg2" xmlns:cc="http://creativecommons.org/ns#" xmlns:rdf="http://www.w3.org/1999/02/22-rdf-syntax-ns#" xmlns:sodipodi="http://sodipodi.sourceforge.net/DTD/sodipodi-0.dtd" xmlns:svg="http://www.w3.org/2000/svg" xmlns:inkscape="http://www.inkscape.org/namespaces/inkscape" xmlns:dc="http://purl.org/dc/elements/1.1/" inkscape:version="0.48.2 r9819" sodipodi:docname="Windows Phone 8 logo.svg"
	 xmlns="http://www.w3.org/2000/svg" xmlns:xlink="http://www.w3.org/1999/xlink" x="0px" y="0px" viewBox="0 0 703.7 100.2"
	 style="enable-background:new 0 0 703.7 100.2;" xml:space="preserve">
<style type="text/css">
	.st0{fill:#00CCFF;}
	.st1{fill-rule:evenodd;clip-rule:evenodd;fill:#00CCFF;}
</style>
<sodipodi:namedview  bordercolor="#666666" borderopacity="1" fit-margin-bottom="0" fit-margin-left="0" fit-margin-right="0" fit-margin-top="0" gridtolerance="10" guidetolerance="10" id="namedview39" inkscape:current-layer="svg2" inkscape:cx="389.38742" inkscape:cy="41.292808" inkscape:pageopacity="0" inkscape:pageshadow="2" inkscape:window-height="837" inkscape:window-maximized="1" inkscape:window-width="1600" inkscape:window-x="-8" inkscape:window-y="-8" inkscape:zoom="1.4142136" objecttolerance="10" pagecolor="#ffffff" showgrid="false">
	</sodipodi:namedview>
<path id="path9" inkscape:connector-curvature="0" class="st0" d="M307.1,16.6c2.4,0,4.8,0,7.2,0c0,21.1,0,42.3,0,63.4
	c-2.4,0-4.8,0-7.2,0c0-2.3,0-4.6,0-6.9c-5.1,9.2-19.1,10.8-26.6,3.7c-4.5-4.2-6.1-10.6-6.3-16.5c-0.1-6.8,1.6-14,6.4-19
	c6.9-7.2,20.7-7.6,26.5,1.2C307,33.9,307.1,25.2,307.1,16.6 M289.9,43.2c-4.8,2-7.4,7.2-8,12.2c-0.8,5.9-0.1,12.8,4.6,16.9
	c4.8,4.4,13.1,3.5,17.1-1.6c4.2-5,3.6-12,3.2-18.1C306.2,44.8,296.9,39.8,289.9,43.2L289.9,43.2z"/>
<path id="path11" inkscape:connector-curvature="0" class="st0" d="M526.5,16.6c2.4,0,4.8,0,7.2,0c-0.1,9.1,0.2,18.1-0.1,27.2
	c4.5-7,14-9.9,21.5-6.2c5.3,2.4,7.1,8.8,7.3,14.1c0.2,9.5,0,18.9,0.1,28.3c-2.4,0-4.8,0-7.2,0c0-8.6,0.1-17.1,0-25.7
	c-0.2-4.3-1.4-9.5-5.8-11.4c-7.1-3.2-15,3-15.6,10.3c-0.4,8.9,0,17.9-0.2,26.8c-2.4,0-4.8,0-7.2,0C526.4,58.9,526.5,37.8,526.5,16.6
	L526.5,16.6z"/>
<path id="path13" inkscape:connector-curvature="0" class="st0" d="M213.8,19.6c2.4-2.1,6.9-1,7.6,2.2c1.5,3.6-3.1,7.5-6.5,5.6
	C211.9,26.3,211.5,21.7,213.8,19.6z"/>
<path id="path15" inkscape:connector-curvature="0" class="st0" d="M129.6,20c2.7,0,5.5,0.1,8.2,0.1c4.3,17,9.7,33.6,13.7,50.7
	C155.8,53.7,161.3,37,166,20c2.4,0,4.8,0,7.2,0.1c4.4,16.9,9.7,33.7,13.5,50.7c4.2-17,8.9-33.8,13.4-50.7c2.7,0,5.3,0,8,0
	c-5.6,20-11.3,40-17,60c-2.9,0-5.7,0-8.6,0c-4.4-16.1-9.5-32.1-13.3-48.4c-3.7,16.3-8.9,32.3-13.4,48.4c-2.8,0-5.7,0-8.5,0
	C141.3,60.1,135.5,40,129.6,20z"/>
<path id="path17" inkscape:connector-curvature="0" class="st0" d="M482.4,20c9.3,0.6,19.1-1.6,27.9,2.1c11.8,5.4,12.2,23.8,2,31
	c-6.4,5-14.8,4.5-22.5,4.4c0,7.5,0,15,0,22.5c-2.5,0-5,0-7.5,0C482.4,60,482.4,40,482.4,20 M489.9,26.6c0,8.1,0,16.2,0,24.4
	c6.3-0.1,13.8,0.8,18.8-4c4.4-4.7,4.4-13.3-0.6-17.6C502.8,25.6,495.9,26.8,489.9,26.6L489.9,26.6z"/>
<path id="path19" inkscape:connector-curvature="0" class="st0" d="M237.6,43.8c3.9-5.9,11.1-9.2,18.1-7.4
	c6.6,1.1,10.5,7.8,10.7,14.1c0.2,9.9,0,19.7,0.1,29.5c-2.4,0-4.8,0-7.2,0c-0.1-8.9,0.1-17.8-0.1-26.8c-0.1-4.5-2.3-9.9-7.2-10.8
	c-7-1.9-13.8,4.4-14.1,11.3c-0.4,8.8,0,17.5-0.2,26.3c-2.4,0-4.8,0-7.2,0c0-14.3,0-28.5,0-42.8c2.4,0,4.8,0,7.2,0
	C237.7,39.4,237.7,41.6,237.6,43.8z"/>
<path id="path21" inkscape:connector-curvature="0" class="st0" d="M336.3,37.2c7-2.1,15.3-1.8,21.2,2.8c8.6,7,9.2,20.2,5.2,29.8
	c-6.2,14.3-29.4,15.4-37.1,2C318.9,60.3,322.3,41.4,336.3,37.2 M338.6,43.1c-9,3.4-10.4,15.3-7.6,23.4c2.8,8.3,14,11,20.9,6.2
	c5.2-4,6.2-11.2,5.5-17.3c-0.4-4.5-2.5-9.1-6.5-11.5C347.2,41.8,342.6,41.7,338.6,43.1z"/>
<path id="path23" inkscape:connector-curvature="0" class="st0" d="M434.2,39.9c5.6-5.1,14.1-4.6,20.7-2.1c0,2.5,0,4.9,0,7.4
	c-4.4-2.4-10-4.5-14.7-1.8c-3.6,2-3.4,8,0.3,9.8c4.2,2.6,9.2,3.8,12.9,7.1c5.3,4.8,4.2,14.6-2,18.2c-6.4,3.9-14.6,3.3-21.3,0.4
	c0-2.7-0.1-5.3-0.1-8c4.5,3.2,10.5,5.4,16,3.4c3.5-1.1,4.5-6.2,2-8.7c-4.2-3.6-10-4.6-14.2-8.2C428.7,53,429.1,44.1,434.2,39.9
	L434.2,39.9z"/>
<path id="path25" inkscape:connector-curvature="0" class="st0" d="M583.8,37.3c7-2.2,15.3-1.9,21.3,2.6c8.7,6.9,9.4,20.2,5.4,29.9
	c-6.2,14.5-29.6,15.5-37.2,1.9C566.9,60.2,570.1,41.8,583.8,37.3 M585.2,43.7c-8.8,4.9-9.5,17.9-4.7,25.8c5.2,7.9,19.3,7.5,23.2-1.4
	c2.9-7.2,2.8-16.8-2.9-22.6C596.7,41.5,590.1,41.4,585.2,43.7z"/>
<path id="path27" inkscape:connector-curvature="0" class="st0" d="M628.9,43.6c4.6-7.8,16.1-10.1,23.3-4.7
	c4.5,3.7,5.4,9.8,5.5,15.2c0.1,8.6,0,17.3,0,25.9c-2.4,0-4.8,0-7.2,0c-0.1-8.8,0.2-17.7-0.2-26.5c-0.2-4.5-2.1-9.9-7-11
	C636.1,40.5,629,47,629,54.2c-0.1,8.6,0,17.2,0,25.9c-2.4,0-4.8,0-7.2,0c0-14.3,0-28.5,0-42.8c2.4,0,4.8,0,7.2,0
	C628.9,39.4,628.9,41.5,628.9,43.6L628.9,43.6z"/>
<path id="path29" inkscape:connector-curvature="0" class="st0" d="M670.5,43.8c6-8.6,19.9-10.6,27.6-3.2c5.3,5.1,5.8,12.9,5.6,19.8
	c-10.2,0-20.3,0-30.5,0c0.5,4.8,1.8,10.2,6.4,12.8c6.7,3.9,15.1,1.5,21.1-2.7c-0.1,2.4-0.1,4.7-0.2,7.1c-6.8,3.8-15.3,5-22.7,2.4
	c-5-1.8-8.7-6.2-10.3-11.1C664.8,60.5,665.4,50.9,670.5,43.8 M678.2,45.2c-2.8,2.3-3.8,5.9-4.9,9.2c7.7,0.1,15.4,0.1,23.1,0.1
	c-0.3-3.2-0.7-6.6-3-9C689.6,41.1,682.2,41.3,678.2,45.2z"/>
<path id="path31" inkscape:connector-curvature="0" class="st0" d="M213.3,37.2c2.4,0,4.8,0,7.2,0c0,14.3,0,28.5,0,42.8
	c-2.4,0-4.8,0-7.2,0C213.3,65.8,213.3,51.5,213.3,37.2z"/>
<path id="path33" inkscape:connector-curvature="0" class="st0" d="M367.2,37.3c2.5,0,5.1,0,7.6,0c3.1,11.7,6.7,23.2,9.4,35
	c3.4-11.7,7.2-23.3,10.6-35c2.2,0,4.4,0,6.7,0c3.1,12.1,7.2,23.9,9.6,36.1c2.3-12.2,6.4-24,9.4-36.1c2.4,0,4.8,0,7.2,0
	c-4.4,14.3-8.6,28.5-12.9,42.8c-2.5,0-5,0-7.5,0c-3.1-11.2-6.7-22.2-9.5-33.4c-3.2,11.2-6.9,22.2-10.3,33.4c-2.4,0-4.9,0-7.3,0
	C375.9,65.8,371.5,51.5,367.2,37.3L367.2,37.3z"/>
<g id="layer1" transform="matrix(0.91521282,0,0,0.91521282,136.33212,-206.23114)" inkscape:label="Layer 1">
	<g id="g3012" transform="translate(109.60155,-54.548234)">
		<g id="g3763">
			<path id="path13-7" inkscape:connector-curvature="0" sodipodi:nodetypes="cccccccccccccccccccc" class="st1" d="M-258.6,295.4
				l44.6-6.1l0,43l-44.6,0.3L-258.6,295.4z M-214,337.3l0,43.1l-44.6-6.1l0-37.2L-214,337.3z M-208.6,288.5l59.1-8.6v51.9l-59.1,0.5
				L-208.6,288.5z M-149.4,337.7l0,51.7l-59.1-8.3l-0.1-43.4L-149.4,337.7z"/>
		</g>
	</g>
</g>
</svg>
