<?xml version="1.0" encoding="utf-8"?>
<!-- Generator: Adobe Illustrator 27.5.0, SVG Export Plug-In . SVG Version: 6.00 Build 0)  -->
<svg version="1.1" id="图层_1" xmlns="http://www.w3.org/2000/svg" xmlns:xlink="http://www.w3.org/1999/xlink" x="0px" y="0px"
	 viewBox="0 0 64 64" style="enable-background:new 0 0 64 64;" xml:space="preserve">
<style type="text/css">
	.st0{fill:#FFFFFF;}
</style>
<path class="st0" d="M32,7C17.7,7,6,18.7,6,33s11.7,26,26,26s26-11.7,26-26S46.3,7,32,7z M32,11c12.2,0,22,9.8,22,22s-9.8,22-22,22
	s-22-9.8-22-22S19.8,11,32,11z M30,19l0,20.8l-9.1-8.8l-2.8,2.9L32,47.3l13.9-13.3l-2.8-2.9L34,39.8L34,19H30z"/>
</svg>
