<?xml version="1.0" encoding="utf-8"?>
<!-- Generator: Adobe Illustrator 27.5.0, SVG Export Plug-In . SVG Version: 6.00 Build 0)  -->
<svg version="1.1" id="图层_1" xmlns="http://www.w3.org/2000/svg" xmlns:xlink="http://www.w3.org/1999/xlink" x="0px" y="0px"
	 viewBox="0 0 170 150" style="enable-background:new 0 0 170 150;" xml:space="preserve">
<style type="text/css">
	.st0{fill:#FFFFFF;}
</style>
<path class="st0" d="M170,20.7c-33,13.7-49,6-63.2-3.6l-16,56.4c14.3,9.7,31.5,17.7,63.2,3.5l16.3-56.3H170z"/>
<path class="st0" d="M63,134.2c-14.3-9.6-30-17.6-63-3.9l16.2-56.6c33-13.6,49-5.9,63.3,3.8L63,134.2z"/>
<path class="st0" d="M82.2,67.3c-8.9-6.9-19.7-10.9-31-11.3c-8.7-0.1-19.1,2.4-32.2,7.8L35.2,7.4c33.1-13.7,49-6,63.3,3.7L82.2,67.3
	z"/>
<path class="st0" d="M88,83c14.4,9.6,30.3,17.3,63.3,3.6L135,142.8c-33,13.7-48.9,6-63.2-3.7L88,83L88,83z"/>
</svg>
